<svg width="611" height="635" viewBox="0 0 611 635" fill="none" xmlns="http://www.w3.org/2000/svg">
<path d="M392.803 33.8164V295.674L549.481 495.121C557.113 504.779 561.867 516.393 563.198 528.631C564.529 540.868 562.383 553.233 557.006 564.305C551.629 575.378 543.239 584.711 532.799 591.232C522.359 597.753 510.292 601.199 497.983 601.174H113.053C100.743 601.199 88.6762 597.753 78.2361 591.232C67.796 584.711 59.406 575.378 54.0291 564.305C48.6521 553.233 46.506 540.868 47.837 528.631C49.168 516.393 53.9223 504.779 61.5542 495.121L218.232 295.674V33.8164M152.768 33.8164H458.268" stroke="white" stroke-width="66" stroke-linecap="round" stroke-linejoin="round"/>
</svg>
