<svg width="611" height="611" viewBox="0 0 611 611" fill="none" xmlns="http://www.w3.org/2000/svg">
<path d="M432.823 275.087C432.823 266.278 432.823 261.874 434.146 257.953C437.991 246.548 448.149 242.144 458.332 237.51C469.737 232.291 475.44 229.694 481.117 229.236C487.533 228.727 493.974 230.102 499.473 233.182C506.754 237.256 511.845 245.046 517.039 251.359C541.046 280.535 553.062 295.122 557.441 311.187C561.005 324.17 561.005 337.765 557.441 350.723C551.051 374.196 530.812 393.85 515.817 412.078C508.154 421.37 504.31 426.029 499.473 428.753C493.879 431.855 487.491 433.228 481.117 432.699C475.44 432.241 469.737 429.644 458.306 424.425C448.123 419.792 437.991 415.387 434.146 403.982C432.823 400.062 432.823 395.657 432.823 386.849V275.087ZM178.239 275.087C178.239 263.987 177.934 254.033 168.972 246.242C165.714 243.416 161.386 241.456 152.755 237.51C141.325 232.317 135.622 229.694 129.945 229.236C112.964 227.861 103.825 239.47 94.0485 251.385C70.0159 280.535 57.9996 295.122 53.5953 311.212C50.0516 324.153 50.0516 337.808 53.5953 350.749C60.0108 374.196 80.2756 393.875 95.2451 412.078C104.69 423.534 113.728 433.998 129.945 432.699C135.622 432.241 141.325 429.644 152.755 424.425C161.411 420.505 165.714 418.519 168.972 415.693C177.934 407.903 178.239 397.949 178.239 386.874V275.087Z" stroke="white" stroke-width="55" stroke-linecap="round" stroke-linejoin="round"/>
<path d="M127.32 229.125C127.32 144.756 207.107 76.375 305.529 76.375C403.951 76.375 483.737 144.756 483.737 229.125M483.737 432.792V453.158C483.737 498.143 438.167 534.625 381.904 534.625H330.987" stroke="white" stroke-width="45" stroke-linecap="round" stroke-linejoin="round"/>
</svg>
