<svg width="672" height="679" viewBox="0 0 672 679" fill="none" xmlns="http://www.w3.org/2000/svg">
<path d="M228.409 311.727C265.238 311.727 300.559 297.097 326.601 271.055C352.643 245.013 367.273 209.693 367.273 172.864C367.273 136.035 352.643 100.714 326.601 74.6722C300.559 48.6302 265.238 34 228.409 34C191.58 34 156.26 48.6302 130.218 74.6722C104.176 100.714 89.5455 136.035 89.5455 172.864C89.5455 209.693 104.176 245.013 130.218 271.055C156.26 297.097 191.58 311.727 228.409 311.727ZM228.409 311.727C284.316 311.727 333.168 332.835 367.912 367.912C388.51 388.796 403.921 414.223 412.903 442.148M228.409 311.727C117.318 311.727 34 395.045 34 506.136V645H311.727M339.5 529.021L455.868 617.227L645 367.273" stroke="white" stroke-width="66.6545"/>
</svg>
