<svg width="90" height="90" viewBox="0 0 90 90" fill="none" xmlns="http://www.w3.org/2000/svg">
<path d="M45.0026 86.6673C46.0193 86.6673 46.9651 86.1965 48.8609 85.2506L64.0693 77.6798C70.8068 74.334 74.1693 72.6548 74.1693 70.0006V36.6673M45.0026 86.6673C43.9859 86.6673 43.0401 86.1965 41.1443 85.2506L25.9359 77.6798C19.1984 74.334 15.8359 72.6548 15.8359 70.0006V36.6673M45.0026 86.6673V53.334M74.1693 36.6673C74.1693 34.0131 70.8026 32.3381 64.0734 28.9881L48.8609 21.4132C46.9609 20.4715 46.0193 20.0007 45.0026 20.0007M74.1693 36.6673C74.1693 39.3215 70.8026 40.9965 64.0734 44.3465L48.8609 51.9215C46.9651 52.8632 46.0193 53.334 45.0026 53.334M15.8359 36.6673C15.8359 34.0131 19.1984 32.334 25.9359 28.9881L41.1443 21.4173C43.0401 20.4715 43.9859 20.0007 45.0026 20.0007M15.8359 36.6673C15.8359 39.3215 19.2026 40.9965 25.9318 44.3465L41.1443 51.9215C43.0401 52.8632 43.9859 53.334 45.0026 53.334M45.0026 20.0007V3.33398M86.6693 82.5006L74.1693 72.084M3.33594 82.5006L15.8359 72.084" stroke="#BA24D5" stroke-width="5" stroke-linecap="round" stroke-linejoin="round"/>
</svg>
