<svg width="86" height="80" viewBox="0 0 86 80" fill="none" xmlns="http://www.w3.org/2000/svg">
<path fill-rule="evenodd" clip-rule="evenodd" d="M62.6299 36.6648C62.2978 32.5363 58.8335 29.2863 54.6192 29.2863H31.3978C29.2666 29.2863 27.2227 30.1329 25.7157 31.6399C24.2087 33.1469 23.3621 35.1908 23.3621 37.322V59.6398C23.3616 62.22 23.8694 64.7749 24.8566 67.1588C25.8438 69.5426 27.2909 71.7086 29.1153 73.533C30.9397 75.3574 33.1057 76.8046 35.4896 77.7917C37.8734 78.7789 40.4283 79.2867 43.0085 79.2863C43.5871 79.2863 44.1597 79.2613 44.7263 79.2113C43.4902 77.5547 42.4499 75.7606 41.6263 73.8648C38.0917 73.5222 34.8115 71.8753 32.4252 69.2454C30.0389 66.6154 28.7177 63.191 28.7192 59.6398V37.322C28.7192 36.6116 29.0014 35.9303 29.5037 35.428C30.0061 34.9256 30.6874 34.6434 31.3978 34.6434H54.6192C55.3296 34.6434 56.0109 34.9256 56.5132 35.428C57.0156 35.9303 57.2978 36.6116 57.2978 37.322V37.9506C59.0265 37.3407 60.8132 36.9098 62.6299 36.6648ZM85.8549 45.0041C84.2705 43.294 82.4695 41.798 80.4978 40.5541V37.322C80.4978 36.6116 80.2156 35.9303 79.7132 35.428C79.2109 34.9256 78.5296 34.6434 77.8192 34.6434H65.9156C65.4335 32.597 64.4049 30.7577 62.9978 29.2863H77.8192C79.9504 29.2863 81.9943 30.1329 83.5013 31.6399C85.0083 33.1469 85.8549 35.1908 85.8549 37.322V45.0041ZM23.0192 29.2863H8.17634C6.04514 29.2863 4.00122 30.1329 2.49424 31.6399C0.987248 33.1469 0.14063 35.1908 0.14063 37.322V56.0684C0.13852 58.7387 0.801794 61.3674 2.07052 63.7171C3.33924 66.0667 5.17342 68.0632 7.40732 69.5261C9.64122 70.989 12.2044 71.8723 14.8653 72.096C17.5262 72.3198 20.2009 71.877 22.6478 70.8077C21.7906 69.2506 21.1085 67.5863 20.6335 65.8363C19.0009 66.5759 17.2088 66.8942 15.4214 66.7619C13.634 66.6296 11.9083 66.0511 10.4023 65.0792C8.89639 64.1074 7.65832 62.7732 6.80146 61.199C5.94461 59.6248 5.49637 57.8607 5.49777 56.0684V37.322C5.49777 36.6116 5.77998 35.9303 6.28231 35.428C6.78464 34.9256 7.46594 34.6434 8.17634 34.6434H20.1013C20.5773 32.6289 21.5849 30.7789 23.0192 29.2863ZM47.7813 1.66635C46.2647 1.03817 44.6393 0.714844 42.9978 0.714844C39.6826 0.714844 36.5031 2.03181 34.1589 4.37601C31.8147 6.72021 30.4978 9.89964 30.4978 13.2148C30.4978 16.5301 31.8147 19.7095 34.1589 22.0537C36.5031 24.3979 39.6826 25.7148 42.9978 25.7148C44.6393 25.7148 46.2647 25.3915 47.7813 24.7633C49.2979 24.1352 50.6759 23.2144 51.8366 22.0537C52.9973 20.8929 53.9181 19.515 54.5463 17.9984C55.1744 16.4818 55.4978 14.8564 55.4978 13.2148C55.4978 11.5733 55.1744 9.94787 54.5463 8.4313C53.9181 6.91473 52.9973 5.53674 51.8366 4.37601C50.6759 3.21528 49.2979 2.29453 47.7813 1.66635ZM75.6801 5.10185C74.3802 4.56341 72.9869 4.28627 71.5799 4.28627C68.7383 4.28627 66.0131 5.4151 64.0038 7.42441C61.9945 9.43373 60.8656 12.159 60.8656 15.0006C60.8656 17.8422 61.9945 20.5674 64.0038 22.5767C66.0131 24.586 68.7383 25.7148 71.5799 25.7148C72.9869 25.7148 74.3802 25.4377 75.6801 24.8993C76.98 24.3608 78.1612 23.5716 79.1561 22.5767C80.151 21.5818 80.9402 20.4007 81.4786 19.1007C82.0171 17.8008 82.2942 16.4076 82.2942 15.0006C82.2942 13.5935 82.0171 12.2003 81.4786 10.9004C80.9402 9.60046 80.151 8.41933 79.1561 7.42441C78.1612 6.4295 76.98 5.64029 75.6801 5.10185ZM18.5158 5.10185C17.2159 4.56341 15.8227 4.28627 14.4156 4.28627C11.574 4.28627 8.8488 5.4151 6.83949 7.42441C4.83017 9.43373 3.70134 12.159 3.70134 15.0006C3.70134 17.8422 4.83017 20.5674 6.83949 22.5767C8.8488 24.586 11.574 25.7148 14.4156 25.7148C15.8227 25.7148 17.2159 25.4377 18.5158 24.8993C19.8157 24.3608 20.9969 23.5716 21.9918 22.5767C22.9867 21.5818 23.7759 20.4007 24.3143 19.1007C24.8528 17.8008 25.1299 16.4076 25.1299 15.0006C25.1299 13.5935 24.8528 12.2003 24.3143 10.9004C23.7759 9.60046 22.9867 8.41933 21.9918 7.42441C20.9969 6.4295 19.8157 5.64029 18.5158 5.10185ZM37.947 8.16408C39.2866 6.82454 41.1034 6.07199 42.9978 6.07199C44.8922 6.07199 46.709 6.82454 48.0485 8.16408C49.3881 9.50363 50.1406 11.3204 50.1406 13.2148C50.1406 15.1092 49.3881 16.9261 48.0485 18.2656C46.709 19.6052 44.8922 20.3577 42.9978 20.3577C41.1034 20.3577 39.2866 19.6052 37.947 18.2656C36.6075 16.9261 35.8549 15.1092 35.8549 13.2148C35.8549 11.3204 36.6075 9.50363 37.947 8.16408ZM69.5298 10.0512C70.1798 9.78198 70.8764 9.64342 71.5799 9.64342C73.0007 9.64342 74.3633 10.2078 75.368 11.2125C76.3727 12.2171 76.9371 13.5798 76.9371 15.0006C76.9371 16.4214 76.3727 17.784 75.368 18.7886C74.3633 19.7933 73.0007 20.3577 71.5799 20.3577C70.8764 20.3577 70.1798 20.2191 69.5298 19.9499C68.8799 19.6807 68.2893 19.2861 67.7918 18.7886C67.2944 18.2912 66.8998 17.7006 66.6306 17.0506C66.3613 16.4007 66.2228 15.7041 66.2228 15.0006C66.2228 14.297 66.3613 13.6004 66.6306 12.9505C66.8998 12.3005 67.2944 11.7099 67.7918 11.2125C68.2893 10.715 68.8799 10.3204 69.5298 10.0512ZM12.3655 10.0512C13.0155 9.78198 13.7121 9.64342 14.4156 9.64342C15.8364 9.64342 17.199 10.2078 18.2037 11.2125C19.2084 12.2171 19.7728 13.5798 19.7728 15.0006C19.7728 16.4214 19.2084 17.784 18.2037 18.7886C17.199 19.7933 15.8364 20.3577 14.4156 20.3577C13.7121 20.3577 13.0155 20.2191 12.3655 19.9499C11.7156 19.6807 11.125 19.2861 10.6276 18.7886C10.1301 18.2912 9.7355 17.7006 9.46628 17.0506C9.19705 16.4007 9.05849 15.7041 9.05849 15.0006C9.05849 14.297 9.19705 13.6004 9.46628 12.9505C9.7355 12.3005 10.1301 11.7099 10.6276 11.2125C11.125 10.715 11.7156 10.3204 12.3655 10.0512Z" fill="#BA24D5"/>
<path d="M66.2121 60.6898L56.7621 51.2363C56.4268 50.901 55.972 50.7126 55.4978 50.7126C55.0236 50.7126 54.5688 50.901 54.2335 51.2363C53.8982 51.5716 53.7098 52.0264 53.7098 52.5006C53.7098 52.9748 53.8982 53.4295 54.2335 53.7648L63.6871 63.2148L54.2335 72.6648C53.8982 73.0002 53.7098 73.4549 53.7098 73.9291C53.7098 74.4033 53.8982 74.8581 54.2335 75.1934C54.5688 75.5287 55.0236 75.7171 55.4978 75.7171C55.972 75.7171 56.4268 75.5287 56.7621 75.1934L66.2121 65.7398L75.6621 75.1934C75.9974 75.5287 76.4521 75.7171 76.9263 75.7171C77.4005 75.7171 77.8553 75.5287 78.1906 75.1934C78.5259 74.8581 78.7143 74.4033 78.7143 73.9291C78.7143 73.4549 78.5259 73.0002 78.1906 72.6648L68.7371 63.2148L78.1906 53.7648C78.5259 53.4295 78.7143 52.9748 78.7143 52.5006C78.7143 52.0264 78.5259 51.5716 78.1906 51.2363C77.8553 50.901 77.4005 50.7126 76.9263 50.7126C76.4521 50.7126 75.9974 50.901 75.6621 51.2363L66.2121 60.6898Z" fill="#BA24D5"/>
</svg>
