<svg width="200" height="29" viewBox="0 0 200 29" fill="none" xmlns="http://www.w3.org/2000/svg">
<path d="M23.4386 21.1777L20.7847 23.702C20.6191 23.8604 20.3584 23.8604 20.1928 23.702L12.9452 16.8101C12.3836 16.2758 11.4635 16.2758 10.9004 16.8101L3.57504 23.7755C3.40943 23.9339 3.14879 23.9339 2.98319 23.7755L0.329234 21.2511C0.150672 21.0812 0.150672 20.7975 0.329234 20.6276L8.5791 12.7838C10.418 11.0356 13.4276 11.0356 15.268 12.7838L23.4401 20.5556C23.6186 20.7255 23.6186 21.0092 23.4401 21.1791L23.4386 21.1777Z" fill="url(#paint0_linear_64666_40778)"/>
<path d="M23.2793 5.10938H0.486726C0.217915 5.10938 0 5.32729 0 5.5961V8.93262C0 9.20143 0.217915 9.41935 0.486726 9.41935H23.2793C23.5481 9.41935 23.7661 9.20143 23.7661 8.93262V5.5961C23.7661 5.32729 23.5481 5.10938 23.2793 5.10938Z" fill="url(#paint1_linear_64666_40778)"/>
<path d="M34.6113 7.83738C34.8964 7.83738 35.0303 7.9713 35.0303 8.25642V13.3195H37.7145C38.9141 13.3195 39.2755 13.1856 39.827 12.4627L43.1002 8.08506C43.2327 7.9137 43.309 7.83738 43.6517 7.83738H46.0119C46.3359 7.83738 46.3921 8.1225 46.2596 8.29386L42.5674 13.0704C42.1296 13.6421 41.7869 14.041 41.4255 14.3463C41.9396 14.6703 42.396 15.108 42.8712 15.7172L46.7723 20.6651C46.8673 20.799 46.9062 21.1604 46.5246 21.1604H44.0881C43.7641 21.1604 43.6877 21.0841 43.5553 20.9127L40.0531 16.3824C39.539 15.7157 39.1013 15.5256 37.9219 15.5256H35.0289V20.7399C35.0289 21.0251 34.8964 21.159 34.6099 21.159H32.555C32.2698 21.159 32.1172 21.0251 32.1172 20.7399V8.25498C32.1172 7.96986 32.2698 7.83594 32.555 7.83594H34.6099L34.6113 7.83738Z" fill="#0D051C"/>
<path d="M56.8217 7.83594C57.7923 7.83594 58.3827 8.13978 59.0106 9.28171L65.3107 20.7198C65.4446 20.9675 65.387 21.1575 65.0817 21.1575H62.6639C62.4162 21.1575 62.3212 21.0999 62.2261 20.9099L60.8754 18.4546H51.93L50.6167 20.9099C50.5217 21.0999 50.4079 21.1575 50.1789 21.1575H47.705C47.381 21.1575 47.3248 20.9675 47.4573 20.7198L53.6998 9.28171C54.3276 8.13978 54.8993 7.83594 55.6985 7.83594H56.8217ZM53.1295 16.2471H59.6773L56.6504 10.6699C56.5928 10.5749 56.5366 10.5374 56.4416 10.5374H56.3278C56.2328 10.5374 56.1752 10.5749 56.119 10.6699L53.131 16.2471H53.1295Z" fill="#0D051C"/>
<path d="M69.4224 7.83594C69.7075 7.83594 69.8414 7.96986 69.8414 8.25498V20.7399C69.8414 21.0251 69.7089 21.159 69.4224 21.159H67.3675C67.0823 21.159 66.9297 21.0251 66.9297 20.7399V8.25498C66.9297 7.96986 67.0823 7.83594 67.3675 7.83594H69.4224Z" fill="#0D051C"/>
<path d="M92.2892 7.83594C92.5743 7.83594 92.7269 7.96986 92.7269 8.25498V10.0636C92.7269 10.3488 92.5743 10.4827 92.2892 10.4827H84.0292C82.0693 10.4827 81.4977 11.0731 81.4977 13.0704V13.4506H92.1941C92.4792 13.4506 92.6132 13.5845 92.6132 13.8696V15.373C92.6132 15.6581 92.4807 15.792 92.1941 15.792H81.4977V20.7399C81.4977 21.0251 81.3637 21.159 81.0786 21.159H79.0237C78.7386 21.159 78.5859 21.0251 78.5859 20.7399V12.8602C78.5859 9.20539 80.0706 7.83594 83.9154 7.83594H92.2892Z" fill="#0D051C"/>
<path d="M105.671 7.83594C109.535 7.83594 111.001 9.20683 111.001 12.8602V16.1333C111.001 19.7881 109.535 21.1575 105.671 21.1575H99.7904C95.9456 21.1575 94.4609 19.7866 94.4609 16.1333V12.8602C94.4609 9.20539 95.9456 7.83594 99.7904 7.83594H105.671ZM97.3726 15.9245C97.3726 17.9233 97.9443 18.5122 99.9042 18.5122H105.556C107.516 18.5122 108.088 17.9218 108.088 15.9245V13.069C108.088 11.0702 107.516 10.4813 105.556 10.4813H99.9042C97.9443 10.4813 97.3726 11.0717 97.3726 13.069V15.9245Z" fill="#0D051C"/>
<path d="M115.812 7.83594C116.097 7.83594 116.231 7.96986 116.231 8.25498V15.8496C116.231 17.8671 116.802 18.4575 118.762 18.4575H124.034C125.994 18.4575 126.547 17.8671 126.547 15.8496V8.25498C126.547 7.96986 126.681 7.83594 126.966 7.83594H129.041C129.326 7.83594 129.46 7.96986 129.46 8.25498V16.1348C129.46 19.7895 127.994 21.159 124.131 21.159H118.65C114.805 21.159 113.32 19.7881 113.32 16.1348V8.25498C113.32 7.96986 113.473 7.83594 113.758 7.83594H115.813H115.812Z" fill="#0D051C"/>
<path d="M135.349 7.83594C136.568 7.83594 136.834 7.98858 137.557 8.95915L144.637 18.2473C144.695 18.3423 144.771 18.3812 144.885 18.3812H145.056C145.152 18.3812 145.209 18.3236 145.209 18.1911V8.25642C145.209 7.9713 145.343 7.83737 145.628 7.83737H147.627C147.912 7.83737 148.046 7.9713 148.046 8.25642V19.1804C148.046 20.7227 147.494 21.1604 146.332 21.1604H144.695C143.534 21.1604 143.249 21.0467 142.487 20.0372L135.388 10.7491C135.312 10.6541 135.254 10.6166 135.141 10.6166H134.969C134.855 10.6166 134.816 10.6742 134.816 10.8067V20.7414C134.816 21.0265 134.683 21.1604 134.397 21.1604H132.399C132.114 21.1604 131.961 21.0265 131.961 20.7414V9.81596C131.961 8.2737 132.512 7.83594 133.675 7.83594H135.349Z" fill="url(#paint2_linear_64666_40778)"/>
<path d="M160.05 7.83882C164.18 7.83882 165.873 9.49484 165.873 13.2058V15.7935C165.873 19.5044 164.18 21.1604 160.05 21.1604H151.142C150.762 21.1604 150.57 20.9703 150.57 20.5887V8.40762C150.57 8.02746 150.76 7.83594 151.142 7.83594H160.05V7.83882ZM153.483 18.2674C153.483 18.4388 153.56 18.5151 153.731 18.5151H159.974C162.22 18.5151 162.962 17.7922 162.962 15.5458V13.452C162.962 11.2056 162.22 10.4827 159.974 10.4827H153.731C153.56 10.4827 153.483 10.559 153.483 10.7491V18.2674Z" fill="url(#paint3_linear_64666_40778)"/>
<path d="M179.04 7.83882C181.952 7.83882 183.133 9.18955 183.133 11.76V12.8443C183.133 15.0144 182.295 16.2888 180.297 16.6503L183.552 20.6852C183.665 20.8191 183.647 21.1604 183.304 21.1604H180.849C180.525 21.1604 180.43 21.0841 180.316 20.9127L177.309 16.9541H171.162V20.7414C171.162 21.0265 171.029 21.1604 170.743 21.1604H168.688C168.403 21.1604 168.25 21.0265 168.25 20.7414V8.40762C168.25 8.02746 168.44 7.83594 168.822 7.83594H179.042L179.04 7.83882ZM171.16 14.6328H178.45C179.744 14.6328 180.219 14.0813 180.219 12.9394V12.1402C180.219 10.9982 179.744 10.4467 178.45 10.4467H171.408C171.237 10.4467 171.16 10.523 171.16 10.6756V14.6343V14.6328Z" fill="url(#paint4_linear_64666_40778)"/>
<path d="M186.156 7.83594C186.385 7.83594 186.499 7.89353 186.613 8.0649L191.695 14.9352L196.814 8.0649C196.928 7.89353 197.043 7.83594 197.27 7.83594H199.763C199.972 7.83594 200.067 8.04473 199.934 8.2161L193.101 17.0852V20.7399C193.101 21.0251 192.968 21.159 192.682 21.159H190.627C190.342 21.159 190.19 21.0251 190.19 20.7399V17.0852L183.433 8.2161C183.299 8.04473 183.376 7.83594 183.605 7.83594H186.155H186.156Z" fill="url(#paint5_linear_64666_40778)"/>
<defs>
<linearGradient id="paint0_linear_64666_40778" x1="-1.51975" y1="8.5343" x2="18.0573" y2="26.4553" gradientUnits="userSpaceOnUse">
<stop stop-color="#EEABFB"/>
<stop offset="1" stop-color="#9F1AB1"/>
</linearGradient>
<linearGradient id="paint1_linear_64666_40778" x1="5.23879" y1="1.18245" x2="24.7712" y2="19.0632" gradientUnits="userSpaceOnUse">
<stop stop-color="#EEABFB"/>
<stop offset="1" stop-color="#9F1AB1"/>
</linearGradient>
<linearGradient id="paint2_linear_64666_40778" x1="137.252" y1="14.496" x2="262.614" y2="14.496" gradientUnits="userSpaceOnUse">
<stop stop-color="#0D051C"/>
<stop offset="0.48" stop-color="#9F1AB1"/>
</linearGradient>
<linearGradient id="paint3_linear_64666_40778" x1="137.249" y1="14.4989" x2="262.611" y2="14.4989" gradientUnits="userSpaceOnUse">
<stop stop-color="#0D051C"/>
<stop offset="0.48" stop-color="#D7539F"/>
<stop offset="1" stop-color="#7D57D7"/>
</linearGradient>
<linearGradient id="paint4_linear_64666_40778" x1="137.245" y1="-116.907" x2="262.607" y2="-116.907" gradientUnits="userSpaceOnUse">
<stop stop-color="#0D051C"/>
<stop offset="0.48" stop-color="#D7539F"/>
<stop offset="1" stop-color="#7D57D7"/>
</linearGradient>
<linearGradient id="paint5_linear_64666_40778" x1="137.245" y1="-116.91" x2="262.607" y2="-116.91" gradientUnits="userSpaceOnUse">
<stop stop-color="#0D051C"/>
<stop offset="0.48" stop-color="#D7539F"/>
<stop offset="1" stop-color="#7D57D7"/>
</linearGradient>
</defs>
</svg>
