<svg width="3342" height="3002" viewBox="0 0 3342 3002" fill="none" xmlns="http://www.w3.org/2000/svg">
<path d="M2524.23 916.185C2462.18 878.455 2382.39 878.455 2313.69 916.185L1832.78 1209.15L1504.79 1400.02L1023.88 1692.98C961.822 1730.71 882.04 1730.71 813.338 1692.98L429.939 1464.38C367.886 1426.65 325.779 1355.63 325.779 1280.17V829.628C325.779 754.168 363.454 683.147 429.939 645.418L806.69 423.477C868.743 385.747 948.525 385.747 1017.23 423.477L1393.98 645.418C1456.03 683.147 1498.14 754.168 1498.14 829.628V1122.59L1826.13 925.063V632.101C1826.13 556.641 1788.46 485.62 1721.97 447.89L1023.88 28.4224C961.822 -9.30748 882.04 -9.30748 813.338 28.4224L104.161 447.89C35.459 485.62 0 556.641 0 632.101V1475.48C0 1550.94 37.6752 1621.96 104.161 1659.69L813.338 2079.15C875.391 2116.88 955.174 2116.88 1023.88 2079.15L1504.79 1792.85L1832.78 1595.32L2313.69 1309.02C2375.75 1271.29 2455.53 1271.29 2524.23 1309.02L2900.98 1530.96C2963.03 1568.69 3005.14 1639.71 3005.14 1715.17V2165.71C3005.14 2241.17 2967.47 2312.19 2900.98 2349.92L2524.23 2578.52C2462.18 2616.25 2382.39 2616.25 2313.69 2578.52L1936.94 2356.58C1874.89 2318.85 1832.78 2247.83 1832.78 2172.37V1879.41L1504.79 2076.93V2369.9C1504.79 2445.36 1542.46 2516.38 1608.95 2554.11L2318.12 2973.57C2380.18 3011.3 2459.96 3011.3 2528.66 2973.57L3237.84 2554.11C3299.89 2516.38 3342 2445.36 3342 2369.9V1526.52C3342 1451.06 3304.33 1380.04 3237.84 1342.31L2524.23 916.185Z" fill="#BA24D5"/>
</svg>
