<svg width="2796" height="2330" viewBox="0 0 2796 2330" fill="none" xmlns="http://www.w3.org/2000/svg">
<path fill-rule="evenodd" clip-rule="evenodd" d="M104.854 877.422H2336.81C2364.74 877.422 2390.34 889.059 2411.29 910.005L2765.05 1273.08C2830.22 1340.57 2783.67 1454.61 2690.57 1454.61H458.616C430.687 1454.61 405.086 1442.98 384.139 1422.03L30.3777 1058.96C-34.7889 991.464 11.7587 877.422 104.854 877.422ZM30.3777 395.655L384.139 32.5833C402.758 11.6369 430.687 0 458.616 0H2688.25C2781.34 0 2827.89 114.042 2762.72 181.536L2411.29 544.607C2392.67 565.553 2364.74 577.19 2336.81 577.19H104.854C11.7587 577.19 -34.7889 463.149 30.3777 395.655ZM2762.72 1934.05L2408.96 2297.12C2388.01 2318.07 2362.41 2329.71 2334.48 2329.71H104.854C11.7587 2329.71 -34.7889 2215.67 30.3777 2148.17L384.139 1785.1C402.758 1764.15 430.687 1752.52 458.616 1752.52H2688.25C2781.34 1752.52 2827.89 1866.56 2762.72 1934.05Z" fill="#BA24D5"/>
</svg>
