<svg width="1779" height="1779" viewBox="0 0 1779 1779" fill="none" xmlns="http://www.w3.org/2000/svg">
<path d="M889.668 1755.34C1367.76 1755.34 1755.34 1367.76 1755.34 889.668C1755.34 411.573 1367.76 24 889.668 24C411.573 24 24 411.573 24 889.668C24 1367.76 411.573 1755.34 889.668 1755.34Z" fill="#BA24D5" stroke="white" stroke-width="46.184" stroke-linecap="round" stroke-linejoin="round"/>
<path d="M716.509 543.388V889.655H1019.49C1065.41 889.655 1109.45 871.414 1141.92 838.945C1174.39 806.476 1192.63 762.439 1192.63 716.521C1192.63 670.603 1174.39 626.566 1141.92 594.097C1109.45 561.628 1065.41 543.388 1019.49 543.388H932.926M716.509 543.388H543.375M716.509 543.388V370.254M716.509 543.388H932.926M932.926 543.388V370.254" stroke="white" stroke-width="46.184" stroke-linecap="round" stroke-linejoin="round"/>
<path d="M716.509 1235.93V889.664H1106.06C1151.98 889.664 1196.01 907.905 1228.48 940.374C1260.95 972.843 1279.19 1016.88 1279.19 1062.8C1279.19 1108.72 1260.95 1152.75 1228.48 1185.22C1196.01 1217.69 1151.98 1235.93 1106.06 1235.93H932.926M716.509 1235.93V1409.06M716.509 1235.93H543.375H932.926M716.509 1235.93H932.926M932.926 1235.93V1409.06" stroke="white" stroke-width="46.184" stroke-linecap="round" stroke-linejoin="round"/>
</svg>
