<svg width="1671" height="2321" viewBox="0 0 1671 2321" fill="none" xmlns="http://www.w3.org/2000/svg">
<path d="M1598.5 45.4662C1563.78 28.1295 1343.65 -73.9152 1133.84 100.109C933.259 266.453 862.518 558.543 815.283 754.951C812.427 766.363 809.351 780.188 805.617 795.769L311.303 728.837L282.084 863.799L774.859 929.634C757.503 1006 736.852 1097.3 714.663 1194.51L243.417 1131.53L213.978 1266.27L683.906 1329.91C619.974 1608.84 549.892 1901.58 512.983 2017.45C483.983 2109.18 393.249 2253.36 308.227 2247.44C168.941 2237.56 181.463 2137.71 126.54 2101.94C71.6159 2066.17 13.3968 2106.99 1.09385 2161.63C-11.2091 2216.28 82.8204 2299.23 154.88 2311.96C293.068 2336.97 422.469 2314.81 569.225 2185.33C697.087 2072.32 806.495 1731.07 861.199 1521.71C872.624 1477.82 885.805 1422.08 899.646 1359.1L1385.83 1424.94L1415.27 1290.19L928.206 1224.36C946.441 1136.58 965.115 1044.19 982.032 958.602L1428.67 1018.95L1457.89 883.989L1009.05 823.42C1022.89 754.512 1034.54 696.797 1042.89 659.271C1118.9 317.585 1229.63 80.1394 1350.46 81.0173C1443.39 81.0173 1462.28 136.538 1507.1 190.743C1557.85 252.847 1623.32 262.942 1657.15 207.421C1698.24 141.366 1633.43 63.2417 1598.5 45.4662Z" fill="#BA24D5"/>
</svg>
