<svg width="3151" height="1544" viewBox="0 0 3151 1544" fill="none" xmlns="http://www.w3.org/2000/svg">
<path d="M2384.82 0.882812C2209.43 0.882812 2017.94 94.2103 1815.2 279.256C1718.65 366.147 1634.98 459.474 1573.84 535.101C1573.84 535.101 1671.99 646.128 1779.8 765.201C1837.73 692.792 1923.01 594.637 2019.55 506.137C2199.77 342.01 2317.24 308.219 2384.82 308.219C2637.44 308.219 2843.41 515.792 2843.41 773.246C2843.41 1027.48 2639.05 1235.05 2384.82 1238.27C2373.55 1238.27 2357.46 1236.66 2341.37 1233.45C2415.39 1267.24 2494.24 1291.37 2569.86 1291.37C3033.28 1291.37 3123.39 977.601 3129.83 955.074C3142.7 897.146 3150.74 837.61 3150.74 774.855C3147.53 346.837 2806.4 0.882812 2384.82 0.882812Z" fill="#BA24D5"/>
<path d="M766.208 1543.94C941.599 1543.94 1133.08 1450.61 1335.83 1265.57C1432.37 1178.68 1516.04 1085.35 1577.19 1009.72C1577.19 1009.72 1479.03 898.694 1371.23 779.621C1313.3 852.03 1228.02 950.185 1131.47 1038.68C951.253 1202.81 833.79 1236.6 766.208 1236.6C513.581 1236.6 307.617 1029.03 307.617 771.576C307.617 517.34 511.972 309.767 766.208 306.549C777.472 306.549 793.563 308.158 809.653 311.377C735.635 277.586 656.79 253.449 581.163 253.449C117.745 253.449 27.6358 567.222 21.1994 589.749C8.32669 647.676 0.28125 707.213 0.28125 769.967C1.89034 1196.38 344.626 1543.94 766.208 1543.94Z" fill="#BA24D5"/>
<path d="M1118.76 512.574C1068.88 464.301 821.078 267.992 582.932 261.556C159.742 251.901 35.8418 551.192 26.1872 591.419C106.642 253.51 409.151 2.4919 767.978 0.882812C1060.83 0.882812 1355.3 280.865 1574.13 535.101C1574.13 535.101 1574.13 533.492 1575.74 533.492C1575.74 533.492 1673.9 644.519 1781.7 763.591C1781.7 763.591 1903.99 905.191 2034.33 1030.7C2084.21 1078.97 2332.01 1273.67 2568.55 1280.11C3003 1291.37 3122.08 974.382 3130.12 950.246C3049.67 1289.76 2747.16 1542.39 2388.33 1544C2095.48 1544 1801.01 1262.41 1580.57 1009.78L1578.96 1011.39C1578.96 1011.39 1480.8 900.364 1373 781.291C1371.39 779.682 1249.1 638.083 1118.76 512.574ZM24.5781 593.028C24.5781 593.028 24.5781 591.419 24.5781 589.81C26.1872 591.419 26.1872 593.028 24.5781 593.028Z" fill="#BA24D5"/>
</svg>
