<svg width="1440" height="1437" viewBox="0 0 1440 1437" fill="none" xmlns="http://www.w3.org/2000/svg">
<g clip-path="url(#clip0_65769_59735)">
<path d="M1153.4 73.4467L853.229 518.917C832.473 549.253 872.389 585.977 901.129 560.43L1196.51 303.367C1204.5 296.98 1215.67 301.77 1215.67 312.947V1116.07C1215.67 1127.25 1201.3 1132.04 1194.92 1124.05L300.783 54.2867C272.043 19.16 230.529 0 184.226 0H152.293C69.266 0 0.609375 68.6567 0.609375 153.28V1283.72C0.609375 1368.34 69.266 1437 153.889 1437C206.579 1437 256.076 1409.86 284.816 1363.55L584.989 918.083C605.746 887.747 565.829 851.023 537.089 876.57L241.706 1132.04C233.723 1138.42 222.546 1133.63 222.546 1122.46V320.93C222.546 309.753 236.916 304.963 243.303 312.947L1137.44 1382.71C1166.18 1417.84 1209.29 1437 1253.99 1437H1285.93C1370.55 1437 1439.21 1368.34 1439.21 1283.72V153.28C1439.21 68.6567 1370.55 0 1285.93 0C1231.64 0 1182.14 27.1433 1153.4 73.4467Z" fill="#BA24D5"/>
</g>
<defs>
<clipPath id="clip0_65769_59735">
<rect width="1438.6" height="1437" fill="white" transform="translate(0.609375)"/>
</clipPath>
</defs>
</svg>
