<svg width="1900" height="1164" viewBox="0 0 250 32" fill="none" xmlns="http://www.w3.org/2000/svg">
<path d="M1.36006 3.69096C0.610808 3.33753 0.289929 2.44363 0.643358 1.69438C0.996787 0.945124 1.89069 0.624245 2.63994 0.977674L1.36006 3.69096ZM250 2.33432L240.057 16.5165L232.746 0.814409L250 2.33432ZM2.63994 0.977674C3.51257 1.3893 4.3876 1.7967 5.26498 2.19984L4.01244 4.92585C3.12592 4.51851 2.24178 4.10687 1.36006 3.69096L2.63994 0.977674ZM10.5519 4.56497C12.3206 5.33493 14.0985 6.08775 15.8853 6.8232L14.7435 9.5974C12.938 8.85428 11.1416 8.09362 9.35447 7.31562L10.5519 4.56497ZM21.2632 8.97361C23.0612 9.67164 24.8679 10.3522 26.6831 11.0152L25.6539 13.8331C23.8198 13.1633 21.9942 12.4756 20.1775 11.7702L21.2632 8.97361ZM32.1433 12.9472C33.9677 13.5721 35.8004 14.1793 37.641 14.7685L36.7263 17.6257C34.8664 17.0302 33.0147 16.4167 31.1712 15.7853L32.1433 12.9472ZM43.1748 16.4788C45.0227 17.0296 46.8782 17.5624 48.7413 18.077L47.9425 20.9687C46.06 20.4487 44.1851 19.9103 42.3179 19.3539L43.1748 16.4788ZM54.3399 19.5629C56.2081 20.0386 58.0835 20.4961 59.966 20.9353L59.2844 23.8569C57.3823 23.4131 55.4873 22.9508 53.5996 22.4701L54.3399 19.5629ZM65.6202 22.1945C67.5057 22.5946 69.398 22.9762 71.2968 23.3393L70.7333 26.286C68.8147 25.919 66.9027 25.5334 64.9976 25.1292L65.6202 22.1945ZM76.9969 24.3701C78.8968 24.694 80.803 24.9994 82.7153 25.2861L82.2706 28.253C80.3384 27.9633 78.4124 27.6547 76.4927 27.3275L76.9969 24.3701ZM88.4518 26.0874C90.3631 26.335 92.2803 26.5638 94.2031 26.7739L93.8773 29.7562C91.9346 29.5439 89.9976 29.3127 88.0666 29.0626L88.4518 26.0874ZM99.9666 27.3454C101.886 27.5165 103.811 27.6689 105.742 27.8023L105.535 30.7951C103.585 30.6603 101.64 30.5064 99.7003 30.3336L99.9666 27.3454ZM111.523 28.1443C113.448 28.2391 115.377 28.3151 117.312 28.3721L117.223 31.3708C115.269 31.3132 113.32 31.2365 111.375 31.1407L111.523 28.1443ZM123.102 28.4858C124.067 28.4953 125.033 28.5 126 28.5V31.5C125.023 31.5 124.047 31.4952 123.073 31.4857L123.102 28.4858ZM126 28.5C126.967 28.5 127.933 28.4953 128.898 28.4858L128.927 31.4857C127.953 31.4952 126.977 31.5 126 31.5V28.5ZM134.688 28.3721C136.623 28.3151 138.553 28.2391 140.477 28.1443L140.625 31.1407C138.68 31.2365 136.731 31.3132 134.777 31.3708L134.688 28.3721ZM146.258 27.8023C148.189 27.6689 150.114 27.5165 152.033 27.3454L152.3 30.3336C150.36 30.5064 148.415 30.6603 146.465 30.7951L146.258 27.8023ZM157.797 26.7739C159.72 26.5638 161.637 26.335 163.548 26.0874L163.933 29.0626C162.002 29.3127 160.065 29.5439 158.123 29.7561L157.797 26.7739ZM169.285 25.2861C171.197 24.9994 173.103 24.694 175.003 24.3701L175.507 27.3275C173.588 27.6547 171.662 27.9633 169.729 28.253L169.285 25.2861ZM180.703 23.3393C182.602 22.9762 184.494 22.5945 186.38 22.1945L187.002 25.1292C185.097 25.5334 183.185 25.919 181.267 26.2859L180.703 23.3393ZM192.034 20.9353C193.917 20.4961 195.792 20.0386 197.66 19.5629L198.4 22.4701C196.513 22.9508 194.618 23.4131 192.716 23.8569L192.034 20.9353ZM203.259 18.077C205.122 17.5624 206.977 17.0296 208.825 16.4788L209.682 19.3539C207.815 19.9103 205.94 20.4487 204.057 20.9687L203.259 18.077ZM214.359 14.7685C216.2 14.1792 218.032 13.5721 219.857 12.9471L220.829 15.7853C218.985 16.4167 217.134 17.0302 215.274 17.6257L214.359 14.7685ZM225.317 11.0152C227.132 10.3522 228.939 9.67164 230.737 8.9736L231.823 11.7702C230.006 12.4756 228.18 13.1633 226.346 13.8331L225.317 11.0152ZM236.115 6.82319C237.902 6.08774 239.679 5.33492 241.448 4.56496L242.646 7.31561C240.858 8.09361 239.062 8.85427 237.257 9.59739L236.115 6.82319Z" fill="#D444F1"/>
</svg>