<?xml version="1.0" encoding="UTF-8" standalone="no" ?>
<!DOCTYPE svg PUBLIC "-//W3C//DTD SVG 1.1//EN" "http://www.w3.org/Graphics/SVG/1.1/DTD/svg11.dtd">
<svg xmlns="http://www.w3.org/2000/svg" xmlns:xlink="http://www.w3.org/1999/xlink" version="1.1" width="1280" height="720" viewBox="0 0 1280 720" xml:space="preserve">
<desc>Created with Fabric.js 5.2.4</desc>
<defs>
</defs>
<g transform="matrix(0 0 0 0 0 0)" id="55a82c86-44bc-4726-aa1d-c8e39936a294"  >
</g>
<g transform="matrix(1 0 0 1 640 360)" id="8384bd10-8012-47a9-86b3-4ee0c056abfd"  >
<rect style="stroke: none; stroke-width: 1; stroke-dasharray: none; stroke-linecap: butt; stroke-dashoffset: 0; stroke-linejoin: miter; stroke-miterlimit: 4; fill: rgb(255,255,255); fill-rule: nonzero; opacity: 1; visibility: hidden;" vector-effect="non-scaling-stroke"  x="-640" y="-360" rx="0" ry="0" width="1280" height="720" />
</g>
<g transform="matrix(3.73 0 0 3.73 616.67 360)"  >
<path style="stroke: rgb(0,0,0); stroke-width: 0; stroke-dasharray: none; stroke-linecap: butt; stroke-dashoffset: 0; stroke-linejoin: miter; stroke-miterlimit: 4; fill: rgb(212,68,241); fill-rule: nonzero; opacity: 1;" vector-effect="non-scaling-stroke"  transform=" translate(-125.25, -15.84)" d="M 1.36006 28.309 C 0.610808 28.6625 0.289929 29.5564 0.643358 30.3056 C 0.996787 31.0549 1.89069 31.3758 2.63994 31.0223 L 1.36006 28.309 Z M 250 29.6657 L 240.057 15.4835 L 232.746 31.1856 L 250 29.6657 Z M 2.63994 31.0223 C 3.51257 30.6107 4.3876 30.2033 5.26498 29.8002 L 4.01244 27.0741 C 3.12592 27.4815 2.24178 27.8931 1.36006 28.309 L 2.63994 31.0223 Z M 10.5519 27.435 C 12.3206 26.6651 14.0985 25.9123 15.8853 25.1768 L 14.7435 22.4026 C 12.938 23.1457 11.1416 23.9064 9.35447 24.6844 L 10.5519 27.435 Z M 21.2632 23.0264 C 23.0612 22.3284 24.8679 21.6478 26.6831 20.9848 L 25.6539 18.1669 C 23.8198 18.8367 21.9942 19.5244 20.1775 20.2298 L 21.2632 23.0264 Z M 32.1433 19.0528 C 33.9677 18.4279 35.8004 17.8207 37.641 17.2315 L 36.7263 14.3743 C 34.8664 14.9698 33.0147 15.5833 31.1712 16.2147 L 32.1433 19.0528 Z M 43.1748 15.5212 C 45.0227 14.9704 46.8782 14.4376 48.7413 13.923 L 47.9425 11.0313 C 46.06 11.5513 44.1851 12.0897 42.3179 12.6461 L 43.1748 15.5212 Z M 54.3399 12.4371 C 56.2081 11.9614 58.0835 11.5039 59.966 11.0647 L 59.2844 8.14313 C 57.3823 8.58689 55.4873 9.04922 53.5996 9.5299 L 54.3399 12.4371 Z M 65.6202 9.80547 C 67.5057 9.40545 69.398 9.02378 71.2968 8.66065 L 70.7333 5.71405 C 68.8147 6.08095 66.9027 6.4666 64.9976 6.87079 L 65.6202 9.80547 Z M 76.9969 7.62987 C 78.8968 7.30597 80.803 7.00058 82.7153 6.71389 L 82.2706 3.74704 C 80.3384 4.03671 78.4124 4.34527 76.4927 4.67254 L 76.9969 7.62987 Z M 88.4518 5.91255 C 90.3631 5.66504 92.2803 5.43616 94.2031 5.22611 L 93.8773 2.24385 C 91.9346 2.45607 89.9976 2.68732 88.0666 2.9374 L 88.4518 5.91255 Z M 99.9666 4.65457 C 101.886 4.48349 103.811 4.33115 105.742 4.19772 L 105.535 1.20486 C 103.585 1.33966 101.64 1.49357 99.7003 1.66641 L 99.9666 4.65457 Z M 111.523 3.85565 C 113.448 3.76087 115.377 3.68488 117.312 3.62787 L 117.223 0.629172 C 115.269 0.686767 113.32 0.763531 111.375 0.859285 L 111.523 3.85565 Z M 123.102 3.5142 C 124.067 3.50474 125.033 3.5 126 3.5 L 126 0.5 C 125.023 0.5 124.047 0.504789 123.073 0.514344 L 123.102 3.5142 Z M 126 3.5 C 126.967 3.5 127.933 3.50474 128.898 3.5142 L 128.927 0.514345 C 127.953 0.504789 126.977 0.5 126 0.5 L 126 3.5 Z M 134.688 3.62787 C 136.623 3.68488 138.553 3.76087 140.477 3.85565 L 140.625 0.859286 C 138.68 0.763532 136.731 0.686768 134.777 0.629173 L 134.688 3.62787 Z M 146.258 4.19772 C 148.189 4.33115 150.114 4.48349 152.033 4.65457 L 152.3 1.66641 C 150.36 1.49357 148.415 1.33966 146.465 1.20486 L 146.258 4.19772 Z M 157.797 5.22611 C 159.72 5.43616 161.637 5.66504 163.548 5.91256 L 163.933 2.9374 C 162.002 2.68732 160.065 2.45607 158.123 2.24385 L 157.797 5.22611 Z M 169.285 6.71389 C 171.197 7.00058 173.103 7.30597 175.003 7.62988 L 175.507 4.67255 C 173.588 4.34528 171.662 4.03671 169.729 3.74705 L 169.285 6.71389 Z M 180.703 8.66066 C 182.602 9.02378 184.494 9.40545 186.38 9.80547 L 187.002 6.8708 C 185.097 6.4666 183.185 6.08095 181.267 5.71405 L 180.703 8.66066 Z M 192.034 11.0647 C 193.917 11.5039 195.792 11.9614 197.66 12.4371 L 198.4 9.5299 C 196.513 9.04922 194.618 8.5869 192.716 8.14313 L 192.034 11.0647 Z M 203.259 13.923 C 205.122 14.4376 206.977 14.9704 208.825 15.5212 L 209.682 12.6461 C 207.815 12.0897 205.94 11.5513 204.057 11.0313 L 203.259 13.923 Z M 214.359 17.2315 C 216.2 17.8208 218.032 18.4279 219.857 19.0529 L 220.829 16.2147 C 218.985 15.5833 217.134 14.9698 215.274 14.3743 L 214.359 17.2315 Z M 225.317 20.9848 C 227.132 21.6478 228.939 22.3284 230.737 23.0264 L 231.823 20.2298 C 230.006 19.5244 228.18 18.8367 226.346 18.1669 L 225.317 20.9848 Z M 236.115 25.1768 C 237.902 25.9123 239.679 26.6651 241.448 27.435 L 242.646 24.6844 C 240.858 23.9064 239.062 23.1457 237.257 22.4026 L 236.115 25.1768 Z M 1.36006 28.309 C 0.610808 28.6625 0.289929 29.5564 0.643358 30.3056 C 0.996787 31.0549 1.89069 31.3758 2.63994 31.0223 L 1.36006 28.309 Z M 250 29.6657 L 240.057 15.4835 L 232.746 31.1856 L 250 29.6657 Z M 2.63994 31.0223 C 3.51257 30.6107 4.3876 30.2033 5.26498 29.8002 L 4.01244 27.0741 C 3.12592 27.4815 2.24178 27.8931 1.36006 28.309 L 2.63994 31.0223 Z M 10.5519 27.435 C 12.3206 26.6651 14.0985 25.9123 15.8853 25.1768 L 14.7435 22.4026 C 12.938 23.1457 11.1416 23.9064 9.35447 24.6844 L 10.5519 27.435 Z M 21.2632 23.0264 C 23.0612 22.3284 24.8679 21.6478 26.6831 20.9848 L 25.6539 18.1669 C 23.8198 18.8367 21.9942 19.5244 20.1775 20.2298 L 21.2632 23.0264 Z M 32.1433 19.0528 C 33.9677 18.4279 35.8004 17.8207 37.641 17.2315 L 36.7263 14.3743 C 34.8664 14.9698 33.0147 15.5833 31.1712 16.2147 L 32.1433 19.0528 Z M 43.1748 15.5212 C 45.0227 14.9704 46.8782 14.4376 48.7413 13.923 L 47.9425 11.0313 C 46.06 11.5513 44.1851 12.0897 42.3179 12.6461 L 43.1748 15.5212 Z M 54.3399 12.4371 C 56.2081 11.9614 58.0835 11.5039 59.966 11.0647 L 59.2844 8.14313 C 57.3823 8.58689 55.4873 9.04922 53.5996 9.5299 L 54.3399 12.4371 Z M 65.6202 9.80547 C 67.5057 9.40545 69.398 9.02378 71.2968 8.66065 L 70.7333 5.71405 C 68.8147 6.08095 66.9027 6.4666 64.9976 6.87079 L 65.6202 9.80547 Z M 76.9969 7.62987 C 78.8968 7.30597 80.803 7.00058 82.7153 6.71389 L 82.2706 3.74704 C 80.3384 4.03671 78.4124 4.34527 76.4927 4.67254 L 76.9969 7.62987 Z M 88.4518 5.91255 C 90.3631 5.66504 92.2803 5.43616 94.2031 5.22611 L 93.8773 2.24385 C 91.9346 2.45607 89.9976 2.68732 88.0666 2.9374 L 88.4518 5.91255 Z M 99.9666 4.65457 C 101.886 4.48349 103.811 4.33115 105.742 4.19772 L 105.535 1.20486 C 103.585 1.33966 101.64 1.49357 99.7003 1.66641 L 99.9666 4.65457 Z M 111.523 3.85565 C 113.448 3.76087 115.377 3.68488 117.312 3.62787 L 117.223 0.629172 C 115.269 0.686767 113.32 0.763531 111.375 0.859285 L 111.523 3.85565 Z M 123.102 3.5142 C 124.067 3.50474 125.033 3.5 126 3.5 L 126 0.5 C 125.023 0.5 124.047 0.504789 123.073 0.514344 L 123.102 3.5142 Z M 126 3.5 C 126.967 3.5 127.933 3.50474 128.898 3.5142 L 128.927 0.514345 C 127.953 0.504789 126.977 0.5 126 0.5 L 126 3.5 Z M 134.688 3.62787 C 136.623 3.68488 138.553 3.76087 140.477 3.85565 L 140.625 0.859286 C 138.68 0.763532 136.731 0.686768 134.777 0.629173 L 134.688 3.62787 Z M 146.258 4.19772 C 148.189 4.33115 150.114 4.48349 152.033 4.65457 L 152.3 1.66641 C 150.36 1.49357 148.415 1.33966 146.465 1.20486 L 146.258 4.19772 Z M 157.797 5.22611 C 159.72 5.43616 161.637 5.66504 163.548 5.91256 L 163.933 2.9374 C 162.002 2.68732 160.065 2.45607 158.123 2.24385 L 157.797 5.22611 Z M 169.285 6.71389 C 171.197 7.00058 173.103 7.30597 175.003 7.62988 L 175.507 4.67255 C 173.588 4.34528 171.662 4.03671 169.729 3.74705 L 169.285 6.71389 Z M 180.703 8.66066 C 182.602 9.02378 184.494 9.40545 186.38 9.80547 L 187.002 6.8708 C 185.097 6.4666 183.185 6.08095 181.267 5.71405 L 180.703 8.66066 Z M 192.034 11.0647 C 193.917 11.5039 195.792 11.9614 197.66 12.4371 L 198.4 9.5299 C 196.513 9.04922 194.618 8.5869 192.716 8.14313 L 192.034 11.0647 Z M 203.259 13.923 C 205.122 14.4376 206.977 14.9704 208.825 15.5212 L 209.682 12.6461 C 207.815 12.0897 205.94 11.5513 204.057 11.0313 L 203.259 13.923 Z M 214.359 17.2315 C 216.2 17.8208 218.032 18.4279 219.857 19.0529 L 220.829 16.2147 C 218.985 15.5833 217.134 14.9698 215.274 14.3743 L 214.359 17.2315 Z M 225.317 20.9848 C 227.132 21.6478 228.939 22.3284 230.737 23.0264 L 231.823 20.2298 C 230.006 19.5244 228.18 18.8367 226.346 18.1669 L 225.317 20.9848 Z M 236.115 25.1768 C 237.902 25.9123 239.679 26.6651 241.448 27.435 L 242.646 24.6844 C 240.858 23.9064 239.062 23.1457 237.257 22.4026 L 236.115 25.1768 Z" stroke-linecap="round" />
</g>
</svg>