<svg width="28" height="56" viewBox="0 0 28 56" fill="none" xmlns="http://www.w3.org/2000/svg">
<path d="M18.3848 1.1291C18.8741 0.681052 19.5377 0.70678 19.867 1.18656C20.1963 1.66635 20.0666 2.4185 19.5773 2.86655L18.3848 1.1291ZM27.9848 48.9006L16.3555 55.4552L18.6181 41.7347L27.9848 48.9006ZM19.5773 2.86655C19.036 3.36221 18.51 3.84756 17.9988 4.32309L16.7902 2.60052C17.307 2.11965 17.8385 1.62932 18.3848 1.1291L19.5773 2.86655ZM14.8872 7.27664C13.7941 8.3383 12.7869 9.34636 11.8605 10.3078L10.5425 8.69267C11.494 7.70521 12.5236 6.67493 13.6351 5.59535L14.8872 7.27664ZM8.97105 13.4579C7.95025 14.6381 7.07515 15.74 6.33067 16.7816L4.74194 15.4924C5.54903 14.3632 6.48228 13.1901 7.54947 11.9563L8.97105 13.4579ZM4.17463 20.3322C3.53146 21.6509 3.12101 22.8874 2.89737 24.0988L0.806981 23.985C1.08203 22.4952 1.5825 21.0062 2.33214 19.4692L4.17463 20.3322ZM2.76296 27.9376C2.82521 28.5536 2.92444 29.1853 3.05866 29.8392L0.971691 30.7059C0.823784 29.9853 0.711229 29.2737 0.639704 28.5659L2.76296 27.9376ZM3.05866 29.8392C3.20484 30.5513 3.38511 31.2784 3.60467 32.0119L1.56604 33.0709C1.32695 32.2721 1.13075 31.4808 0.971691 30.7059L3.05866 29.8392ZM5.23726 36.0539C5.86862 37.2629 6.63431 38.448 7.55846 39.5715L5.88221 41.3212C4.87289 40.0942 4.03631 38.7994 3.34667 37.4788L5.23726 36.0539ZM10.4932 42.4575C11.5087 43.2653 12.6489 44.0099 13.9282 44.6692L12.791 46.8563C11.4147 46.1471 10.1817 45.3427 9.07859 44.4652L10.4932 42.4575ZM17.7299 46.2253C18.9787 46.6205 20.3286 46.9469 21.7873 47.1923L21.1489 49.5447C19.6134 49.2864 18.1849 48.9415 16.8565 48.5212L17.7299 46.2253ZM18.3848 1.1291C18.8741 0.681052 19.5377 0.70678 19.867 1.18656C20.1963 1.66635 20.0666 2.4185 19.5773 2.86655L18.3848 1.1291ZM27.9848 48.9006L16.3555 55.4552L18.6181 41.7347L27.9848 48.9006ZM19.5773 2.86655C19.036 3.36221 18.51 3.84756 17.9988 4.32309L16.7902 2.60052C17.307 2.11965 17.8385 1.62932 18.3848 1.1291L19.5773 2.86655ZM14.8872 7.27664C13.7941 8.3383 12.7869 9.34636 11.8605 10.3078L10.5425 8.69267C11.494 7.70521 12.5236 6.67493 13.6351 5.59535L14.8872 7.27664ZM8.97105 13.4579C7.95025 14.6381 7.07515 15.74 6.33067 16.7816L4.74194 15.4924C5.54903 14.3632 6.48228 13.1901 7.54947 11.9563L8.97105 13.4579ZM4.17463 20.3322C3.53146 21.6509 3.12101 22.8874 2.89737 24.0988L0.806981 23.985C1.08203 22.4952 1.5825 21.0062 2.33214 19.4692L4.17463 20.3322ZM2.76296 27.9376C2.82521 28.5536 2.92444 29.1853 3.05866 29.8392L0.971691 30.7059C0.823784 29.9853 0.711229 29.2737 0.639704 28.5659L2.76296 27.9376ZM3.05866 29.8392C3.20484 30.5513 3.38511 31.2784 3.60467 32.0119L1.56604 33.0709C1.32695 32.2721 1.13075 31.4808 0.971691 30.7059L3.05866 29.8392ZM5.23726 36.0539C5.86862 37.2629 6.63431 38.448 7.55846 39.5715L5.88221 41.3212C4.87289 40.0942 4.03631 38.7994 3.34667 37.4788L5.23726 36.0539ZM10.4932 42.4575C11.5087 43.2653 12.6489 44.0099 13.9282 44.6692L12.791 46.8563C11.4147 46.1471 10.1817 45.3427 9.07859 44.4652L10.4932 42.4575ZM17.7299 46.2253C18.9787 46.6205 20.3286 46.9469 21.7873 47.1923L21.1489 49.5447C19.6134 49.2864 18.1849 48.9415 16.8565 48.5212L17.7299 46.2253Z" fill="#D444F1"/>
</svg>
