<svg width="28" height="56" viewBox="0 0 28 56" fill="none" xmlns="http://www.w3.org/2000/svg">
<path d="M10.1777 1.1291C9.68844 0.681052 9.02482 0.70678 8.69551 1.18656C8.36619 1.66635 8.49588 2.4185 8.98519 2.86655L10.1777 1.1291ZM0.577738 48.9006L12.207 55.4552L9.94445 41.7347L0.577738 48.9006ZM8.98519 2.86655C9.52648 3.36221 10.0525 3.84756 10.5637 4.32309L11.7723 2.60052C11.2555 2.11965 10.724 1.62932 10.1777 1.1291L8.98519 2.86655ZM13.6753 7.27664C14.7684 8.3383 15.7756 9.34636 16.702 10.3078L18.02 8.69267C17.0685 7.70521 16.0389 6.67493 14.9274 5.59535L13.6753 7.27664ZM19.5914 13.4579C20.6122 14.6381 21.4874 15.74 22.2318 16.7816L23.8206 15.4924C23.0135 14.3632 22.0802 13.1901 21.013 11.9563L19.5914 13.4579ZM24.3879 20.3322C25.031 21.6509 25.4415 22.8874 25.6651 24.0988L27.7555 23.985C27.4805 22.4952 26.98 21.0062 26.2304 19.4692L24.3879 20.3322ZM25.7995 27.9376C25.7373 28.5536 25.6381 29.1853 25.5038 29.8392L27.5908 30.7059C27.7387 29.9853 27.8513 29.2737 27.9228 28.5659L25.7995 27.9376ZM25.5038 29.8392C25.3577 30.5513 25.1774 31.2784 24.9578 32.0119L26.9965 33.0709C27.2355 32.2721 27.4318 31.4808 27.5908 30.7059L25.5038 29.8392ZM23.3252 36.0539C22.6939 37.2629 21.9282 38.448 21.004 39.5715L22.6803 41.3212C23.6896 40.0942 24.5262 38.7994 25.2158 37.4788L23.3252 36.0539ZM18.0693 42.4575C17.0538 43.2653 15.9136 44.0099 14.6343 44.6692L15.7715 46.8563C17.1478 46.1471 18.3808 45.3427 19.4839 44.4652L18.0693 42.4575ZM10.8326 46.2253C9.58376 46.6205 8.2339 46.9469 6.7752 47.1923L7.41359 49.5447C8.94908 49.2864 10.3776 48.9415 11.706 48.5212L10.8326 46.2253ZM10.1777 1.1291C9.68844 0.681052 9.02482 0.70678 8.69551 1.18656C8.36619 1.66635 8.49588 2.4185 8.98519 2.86655L10.1777 1.1291ZM0.577738 48.9006L12.207 55.4552L9.94445 41.7347L0.577738 48.9006ZM8.98519 2.86655C9.52648 3.36221 10.0525 3.84756 10.5637 4.32309L11.7723 2.60052C11.2555 2.11965 10.724 1.62932 10.1777 1.1291L8.98519 2.86655ZM13.6753 7.27664C14.7684 8.3383 15.7756 9.34636 16.702 10.3078L18.02 8.69267C17.0685 7.70521 16.0389 6.67493 14.9274 5.59535L13.6753 7.27664ZM19.5914 13.4579C20.6122 14.6381 21.4874 15.74 22.2318 16.7816L23.8206 15.4924C23.0135 14.3632 22.0802 13.1901 21.013 11.9563L19.5914 13.4579ZM24.3879 20.3322C25.031 21.6509 25.4415 22.8874 25.6651 24.0988L27.7555 23.985C27.4805 22.4952 26.98 21.0062 26.2304 19.4692L24.3879 20.3322ZM25.7995 27.9376C25.7373 28.5536 25.6381 29.1853 25.5038 29.8392L27.5908 30.7059C27.7387 29.9853 27.8513 29.2737 27.9228 28.5659L25.7995 27.9376ZM25.5038 29.8392C25.3577 30.5513 25.1774 31.2784 24.9578 32.0119L26.9965 33.0709C27.2355 32.2721 27.4318 31.4808 27.5908 30.7059L25.5038 29.8392ZM23.3252 36.0539C22.6939 37.2629 21.9282 38.448 21.004 39.5715L22.6803 41.3212C23.6896 40.0942 24.5262 38.7994 25.2158 37.4788L23.3252 36.0539ZM18.0693 42.4575C17.0538 43.2653 15.9136 44.0099 14.6343 44.6692L15.7715 46.8563C17.1478 46.1471 18.3808 45.3427 19.4839 44.4652L18.0693 42.4575ZM10.8326 46.2253C9.58376 46.6205 8.2339 46.9469 6.7752 47.1923L7.41359 49.5447C8.94908 49.2864 10.3776 48.9415 11.706 48.5212L10.8326 46.2253Z" fill="#D444F1"/>
</svg>
