<svg width="200" height="28" viewBox="0 0 200 28" fill="none" xmlns="http://www.w3.org/2000/svg">
<path d="M23.4386 20.6777L20.7847 23.202C20.6191 23.3604 20.3584 23.3604 20.1928 23.202L12.9452 16.3101C12.3836 15.7758 11.4635 15.7758 10.9004 16.3101L3.57504 23.2755C3.40943 23.4339 3.14879 23.4339 2.98319 23.2755L0.329234 20.7511C0.150672 20.5812 0.150672 20.2975 0.329234 20.1276L8.5791 12.2838C10.418 10.5356 13.4276 10.5356 15.268 12.2838L23.4401 20.0556C23.6186 20.2255 23.6186 20.5092 23.4401 20.6791L23.4386 20.6777Z" fill="url(#paint0_linear_65024_59575)"/>
<path d="M23.2793 4.60938H0.486726C0.217915 4.60938 0 4.82729 0 5.0961V8.43262C0 8.70143 0.217915 8.91935 0.486726 8.91935H23.2793C23.5481 8.91935 23.7661 8.70143 23.7661 8.43262V5.0961C23.7661 4.82729 23.5481 4.60938 23.2793 4.60938Z" fill="url(#paint1_linear_65024_59575)"/>
<path d="M34.6113 7.33738C34.8964 7.33738 35.0303 7.4713 35.0303 7.75642V12.8195H37.7145C38.9141 12.8195 39.2755 12.6856 39.827 11.9627L43.1002 7.58506C43.2327 7.4137 43.309 7.33738 43.6517 7.33738H46.0119C46.3359 7.33738 46.3921 7.6225 46.2596 7.79386L42.5674 12.5704C42.1296 13.1421 41.7869 13.541 41.4255 13.8463C41.9396 14.1703 42.396 14.608 42.8712 15.2172L46.7723 20.1651C46.8673 20.299 46.9062 20.6604 46.5246 20.6604H44.0881C43.7641 20.6604 43.6877 20.5841 43.5553 20.4127L40.0531 15.8824C39.539 15.2157 39.1013 15.0256 37.9219 15.0256H35.0289V20.2399C35.0289 20.5251 34.8964 20.659 34.6099 20.659H32.555C32.2698 20.659 32.1172 20.5251 32.1172 20.2399V7.75498C32.1172 7.46986 32.2698 7.33594 32.555 7.33594H34.6099L34.6113 7.33738Z" fill="white"/>
<path d="M56.8217 7.33594C57.7923 7.33594 58.3827 7.63978 59.0106 8.78171L65.3107 20.2198C65.4446 20.4675 65.387 20.6575 65.0817 20.6575H62.6639C62.4162 20.6575 62.3212 20.5999 62.2261 20.4099L60.8754 17.9546H51.93L50.6167 20.4099C50.5217 20.5999 50.4079 20.6575 50.1789 20.6575H47.705C47.381 20.6575 47.3248 20.4675 47.4573 20.2198L53.6998 8.78171C54.3276 7.63978 54.8993 7.33594 55.6985 7.33594H56.8217ZM53.1295 15.7471H59.6773L56.6504 10.1699C56.5928 10.0749 56.5366 10.0374 56.4416 10.0374H56.3278C56.2328 10.0374 56.1752 10.0749 56.119 10.1699L53.131 15.7471H53.1295Z" fill="white"/>
<path d="M69.4224 7.33594C69.7075 7.33594 69.8414 7.46986 69.8414 7.75498V20.2399C69.8414 20.5251 69.7089 20.659 69.4224 20.659H67.3675C67.0823 20.659 66.9297 20.5251 66.9297 20.2399V7.75498C66.9297 7.46986 67.0823 7.33594 67.3675 7.33594H69.4224Z" fill="white"/>
<path d="M92.2892 7.33594C92.5743 7.33594 92.7269 7.46986 92.7269 7.75498V9.56364C92.7269 9.84877 92.5743 9.98268 92.2892 9.98268H84.0292C82.0693 9.98268 81.4977 10.5731 81.4977 12.5704V12.9506H92.1941C92.4792 12.9506 92.6132 13.0845 92.6132 13.3696V14.873C92.6132 15.1581 92.4807 15.292 92.1941 15.292H81.4977V20.2399C81.4977 20.5251 81.3637 20.659 81.0786 20.659H79.0237C78.7386 20.659 78.5859 20.5251 78.5859 20.2399V12.3602C78.5859 8.70539 80.0706 7.33594 83.9154 7.33594H92.2892Z" fill="white"/>
<path d="M105.671 7.33594C109.535 7.33594 111.001 8.70683 111.001 12.3602V15.6333C111.001 19.2881 109.535 20.6575 105.671 20.6575H99.7904C95.9456 20.6575 94.4609 19.2866 94.4609 15.6333V12.3602C94.4609 8.70539 95.9456 7.33594 99.7904 7.33594H105.671ZM97.3726 15.4245C97.3726 17.4233 97.9443 18.0122 99.9042 18.0122H105.556C107.516 18.0122 108.088 17.4218 108.088 15.4245V12.569C108.088 10.5702 107.516 9.98125 105.556 9.98125H99.9042C97.9443 9.98125 97.3726 10.5717 97.3726 12.569V15.4245Z" fill="white"/>
<path d="M115.812 7.33594C116.097 7.33594 116.231 7.46986 116.231 7.75498V15.3496C116.231 17.3671 116.802 17.9575 118.762 17.9575H124.034C125.994 17.9575 126.547 17.3671 126.547 15.3496V7.75498C126.547 7.46986 126.681 7.33594 126.966 7.33594H129.041C129.326 7.33594 129.46 7.46986 129.46 7.75498V15.6348C129.46 19.2895 127.994 20.659 124.131 20.659H118.65C114.805 20.659 113.32 19.2881 113.32 15.6348V7.75498C113.32 7.46986 113.473 7.33594 113.758 7.33594H115.813H115.812Z" fill="white"/>
<path d="M135.349 7.33594C136.568 7.33594 136.834 7.48858 137.557 8.45915L144.637 17.7473C144.695 17.8423 144.771 17.8812 144.885 17.8812H145.056C145.152 17.8812 145.209 17.8236 145.209 17.6911V7.75642C145.209 7.4713 145.343 7.33737 145.628 7.33737H147.627C147.912 7.33737 148.046 7.4713 148.046 7.75642V18.6804C148.046 20.2227 147.494 20.6604 146.332 20.6604H144.695C143.534 20.6604 143.249 20.5467 142.487 19.5372L135.388 10.2491C135.312 10.1541 135.254 10.1166 135.141 10.1166H134.969C134.855 10.1166 134.816 10.1742 134.816 10.3067V20.2414C134.816 20.5265 134.683 20.6604 134.397 20.6604H132.399C132.114 20.6604 131.961 20.5265 131.961 20.2414V9.31596C131.961 7.7737 132.512 7.33594 133.675 7.33594H135.349Z" fill="url(#paint2_linear_65024_59575)"/>
<path d="M160.05 7.33882C164.18 7.33882 165.873 8.99484 165.873 12.7058V15.2935C165.873 19.0044 164.18 20.6604 160.05 20.6604H151.142C150.762 20.6604 150.57 20.4703 150.57 20.0887V7.90762C150.57 7.52746 150.76 7.33594 151.142 7.33594H160.05V7.33882ZM153.483 17.7674C153.483 17.9388 153.56 18.0151 153.731 18.0151H159.974C162.22 18.0151 162.962 17.2922 162.962 15.0458V12.952C162.962 10.7056 162.22 9.98269 159.974 9.98269H153.731C153.56 9.98269 153.483 10.059 153.483 10.2491V17.7674Z" fill="url(#paint3_linear_65024_59575)"/>
<path d="M179.04 7.33882C181.952 7.33882 183.133 8.68955 183.133 11.26V12.3443C183.133 14.5144 182.295 15.7888 180.297 16.1503L183.552 20.1852C183.665 20.3191 183.647 20.6604 183.304 20.6604H180.849C180.525 20.6604 180.43 20.5841 180.316 20.4127L177.309 16.4541H171.162V20.2414C171.162 20.5265 171.029 20.6604 170.743 20.6604H168.688C168.403 20.6604 168.25 20.5265 168.25 20.2414V7.90762C168.25 7.52746 168.44 7.33594 168.822 7.33594H179.042L179.04 7.33882ZM171.16 14.1328H178.45C179.744 14.1328 180.219 13.5813 180.219 12.4394V11.6402C180.219 10.4982 179.744 9.94669 178.45 9.94669H171.408C171.237 9.94669 171.16 10.023 171.16 10.1756V14.1343V14.1328Z" fill="url(#paint4_linear_65024_59575)"/>
<path d="M186.156 7.33594C186.385 7.33594 186.499 7.39353 186.613 7.5649L191.695 14.4352L196.814 7.5649C196.928 7.39353 197.043 7.33594 197.27 7.33594H199.763C199.972 7.33594 200.067 7.54473 199.934 7.7161L193.101 16.5852V20.2399C193.101 20.5251 192.968 20.659 192.682 20.659H190.627C190.342 20.659 190.19 20.5251 190.19 20.2399V16.5852L183.433 7.7161C183.299 7.54473 183.376 7.33594 183.605 7.33594H186.155H186.156Z" fill="url(#paint5_linear_65024_59575)"/>
<defs>
<linearGradient id="paint0_linear_65024_59575" x1="-1.51975" y1="8.0343" x2="18.0573" y2="25.9553" gradientUnits="userSpaceOnUse">
<stop stop-color="#F6D0FE"/>
<stop offset="1" stop-color="#D444F1"/>
</linearGradient>
<linearGradient id="paint1_linear_65024_59575" x1="5.23879" y1="0.682446" x2="24.7712" y2="18.5632" gradientUnits="userSpaceOnUse">
<stop stop-color="#FBE8FF"/>
<stop offset="1" stop-color="#E478FA"/>
</linearGradient>
<linearGradient id="paint2_linear_65024_59575" x1="137.252" y1="13.996" x2="262.614" y2="13.996" gradientUnits="userSpaceOnUse">
<stop stop-color="white"/>
<stop offset="0.48" stop-color="#9F1AB1"/>
</linearGradient>
<linearGradient id="paint3_linear_65024_59575" x1="137.249" y1="13.9989" x2="262.611" y2="13.9989" gradientUnits="userSpaceOnUse">
<stop stop-color="white"/>
<stop offset="0.410256" stop-color="#D444F1"/>
<stop offset="1" stop-color="#7D57D7"/>
</linearGradient>
<linearGradient id="paint4_linear_65024_59575" x1="137.245" y1="-117.407" x2="262.607" y2="-117.407" gradientUnits="userSpaceOnUse">
<stop stop-color="white"/>
<stop offset="0.482372" stop-color="#D444F1"/>
<stop offset="1" stop-color="#7D57D7"/>
</linearGradient>
<linearGradient id="paint5_linear_65024_59575" x1="137.245" y1="-117.41" x2="262.607" y2="-117.41" gradientUnits="userSpaceOnUse">
<stop stop-color="white"/>
<stop offset="0.48" stop-color="#D444F1"/>
<stop offset="1" stop-color="#7D57D7"/>
</linearGradient>
</defs>
</svg>
