<svg width="64" height="76" viewBox="0 0 64 76" fill="none" xmlns="http://www.w3.org/2000/svg">
<path d="M13.25 42.1667H50.75V38H13.25V42.1667ZM50.75 52.5833H13.25V48.4167H50.75V52.5833ZM13.25 63H50.75V58.8333H13.25V63Z" fill="#BA24D5"/>
<path fill-rule="evenodd" clip-rule="evenodd" d="M63.25 29.6667C63.25 28.5616 62.811 27.5018 62.0296 26.7204C61.2482 25.939 60.1884 25.5 59.0833 25.5H54.9167V23.4167C54.9167 10.7604 44.6562 0.5 32 0.5C19.3438 0.5 9.08333 10.7604 9.08333 23.4167V25.5H4.91667C3.8116 25.5 2.75179 25.939 1.97039 26.7204C1.18899 27.5018 0.75 28.5616 0.75 29.6667V71.3333C0.75 72.4384 1.18899 73.4982 1.97039 74.2796C2.75179 75.061 3.8116 75.5 4.91667 75.5H59.0833C60.1884 75.5 61.2482 75.061 62.0296 74.2796C62.811 73.4982 63.25 72.4384 63.25 71.3333V29.6667ZM13.25 23.4167C13.25 18.4439 15.2254 13.6747 18.7417 10.1584C22.2581 6.64211 27.0272 4.66667 32 4.66667C36.9728 4.66667 41.7419 6.64211 45.2582 10.1584C48.7746 13.6747 50.75 18.4439 50.75 23.4167V25.5H46.5833V23.4167C46.5833 21.5016 46.2061 19.6052 45.4732 17.8359C44.7404 16.0665 43.6662 14.4589 42.312 13.1047C40.9578 11.7505 39.3501 10.6763 37.5808 9.94342C35.8115 9.21054 33.9151 8.83333 32 8.83333C30.0849 8.83333 28.1885 9.21054 26.4192 9.94342C24.6499 10.6763 23.0422 11.7505 21.688 13.1047C20.3338 14.4589 19.2596 16.0665 18.5268 17.8359C17.7939 19.6052 17.4167 21.5016 17.4167 23.4167V29.6667H59.0833V71.3333H4.91667V29.6667H13.25V23.4167ZM32 13C34.7627 13 37.4122 14.0975 39.3657 16.051C41.3192 18.0045 42.4167 20.654 42.4167 23.4167V25.5H21.5833V23.4167C21.5833 20.654 22.6808 18.0045 24.6343 16.051C26.5878 14.0975 29.2373 13 32 13Z" fill="#BA24D5"/>
</svg>
